<svg width="24" height="24" viewBox="0 0 24 24" fill="none" xmlns="http://www.w3.org/2000/svg">
<path d="M5.84328 4.56789C9.24369 1.16748 14.7568 1.16748 18.1572 4.56789C21.5576 7.9683 21.5576 13.4815 18.1572 16.8819L16.9702 18.0558C16.0954 18.9144 14.9602 20.0184 13.5644 21.3679C12.6921 22.2113 11.3083 22.2112 10.4362 21.3677L6.94515 17.9718C6.50639 17.541 6.13912 17.1777 5.84328 16.8819C2.44287 13.4815 2.44287 7.9683 5.84328 4.56789ZM17.0965 5.62855C14.2819 2.81392 9.71857 2.81392 6.90394 5.62855C4.08932 8.44317 4.08932 13.0066 6.90394 15.8212L8.39102 17.2887C9.20992 18.0901 10.2393 19.0905 11.479 20.2895C11.7697 20.5706 12.231 20.5707 12.5217 20.2896L15.9166 16.9881C16.3856 16.5278 16.7789 16.1388 17.0965 15.8212C19.9112 13.0066 19.9112 8.44317 17.0965 5.62855ZM12.0002 7.99854C13.6579 7.99854 15.0018 9.34238 15.0018 11.0001C15.0018 12.6578 13.6579 14.0016 12.0002 14.0016C10.3425 14.0016 8.99872 12.6578 8.99872 11.0001C8.99872 9.34238 10.3425 7.99854 12.0002 7.99854ZM12.0002 9.49854C11.1709 9.49854 10.4987 10.1708 10.4987 11.0001C10.4987 11.8294 11.1709 12.5016 12.0002 12.5016C12.8295 12.5016 13.5018 11.8294 13.5018 11.0001C13.5018 10.1708 12.8295 9.49854 12.0002 9.49854Z" fill="#73A134"/>
</svg>
