<svg width="24" height="24" viewBox="0 0 24 24" fill="none" xmlns="http://www.w3.org/2000/svg">
<path d="M7.05597 2.41844L8.22297 2.06668C9.54547 1.66804 10.9585 2.31227 11.5248 3.5721L12.4265 5.57782C12.9092 6.65165 12.6548 7.91366 11.7938 8.71661L10.2995 10.1101C10.2558 10.1508 10.2281 10.2058 10.2215 10.2652C10.1772 10.6623 10.4464 11.4357 11.0666 12.51C11.5177 13.2913 11.9259 13.8391 12.2734 14.1473C12.5155 14.362 12.6488 14.4084 12.7056 14.3915L14.7159 13.7769C15.8415 13.4328 17.0613 13.8431 17.75 14.7976L19.0307 16.5726C19.8368 17.6898 19.6919 19.2311 18.6916 20.1784L17.8052 21.0178C16.8488 21.9236 15.4872 22.2611 14.2185 21.907C11.4644 21.1383 8.99511 18.8141 6.78323 14.9831C4.56828 11.1467 3.79109 7.84222 4.50754 5.07043C4.83541 3.80195 5.80154 2.79656 7.05597 2.41844ZM7.48887 3.85461C6.73621 4.08148 6.15653 4.68472 5.95981 5.44581C5.35716 7.77732 6.04602 10.7062 8.08227 14.2331C10.1158 17.7552 12.3047 19.8155 14.6218 20.4622C15.383 20.6747 16.1999 20.4722 16.7738 19.9287L17.6601 19.0893C18.1148 18.6587 18.1807 17.9581 17.8143 17.4503L16.5336 15.6753C16.2205 15.2415 15.6661 15.0549 15.1544 15.2114L13.1391 15.8275C11.9694 16.1762 10.9077 15.2347 9.76762 13.26C8.99931 11.9293 8.64122 10.9006 8.73079 10.0987C8.77719 9.68322 8.97076 9.29812 9.27648 9.01303L10.7708 7.61958C11.1622 7.2546 11.2778 6.68096 11.0584 6.19286L10.1567 4.18714C9.89928 3.61449 9.257 3.32165 8.65587 3.50285L7.48887 3.85461Z" fill="#73A134"/>
</svg>
